<mxfile host="Electron" agent="Mozilla/5.0 (Macintosh; Intel Mac OS X 10_15_7) AppleWebKit/537.36 (KHTML, like Gecko) draw.io/26.2.15 Chrome/134.0.6998.205 Electron/35.2.1 Safari/537.36" version="26.2.15">
  <diagram name="Page-1" id="n1XhamIiYrG2TBAk7eE6">
    <mxGraphModel dx="1426" dy="946" grid="1" gridSize="10" guides="1" tooltips="1" connect="1" arrows="1" fold="1" page="1" pageScale="1" pageWidth="1600" pageHeight="900" math="0" shadow="0">
      <root>
        <mxCell id="0" />
        <mxCell id="1" parent="0" />
        <mxCell id="003OSuUdilosyz2FLQ8a-1" value="[POST] /api/v1/game-session/{sessionId}/transaction" style="html=1;verticalAlign=bottom;endArrow=block;curved=0;rounded=0;entryX=1;entryY=0;entryDx=0;entryDy=5;entryPerimeter=0;" edge="1" parent="1" source="003OSuUdilosyz2FLQ8a-18" target="003OSuUdilosyz2FLQ8a-13">
          <mxGeometry x="0.0037" width="80" relative="1" as="geometry">
            <mxPoint x="1000" y="380" as="sourcePoint" />
            <mxPoint x="650" y="415" as="targetPoint" />
            <mxPoint as="offset" />
          </mxGeometry>
        </mxCell>
        <mxCell id="003OSuUdilosyz2FLQ8a-2" value="Alea Transaction API" style="shape=umlLifeline;perimeter=lifelinePerimeter;whiteSpace=wrap;html=1;container=1;dropTarget=0;collapsible=0;recursiveResize=0;outlineConnect=0;portConstraint=eastwest;newEdgeStyle={&quot;curved&quot;:0,&quot;rounded&quot;:0};fillColor=#dae8fc;strokeColor=#000000;" vertex="1" parent="1">
          <mxGeometry x="1170" y="240" width="130" height="440" as="geometry" />
        </mxCell>
        <mxCell id="003OSuUdilosyz2FLQ8a-3" value="" style="html=1;points=[[0,0,0,0,5],[0,1,0,0,-5],[1,0,0,0,5],[1,1,0,0,-5]];perimeter=orthogonalPerimeter;outlineConnect=0;targetShapes=umlLifeline;portConstraint=eastwest;newEdgeStyle={&quot;curved&quot;:0,&quot;rounded&quot;:0};fillColor=#f8cecc;strokeColor=#b85450;" vertex="1" parent="003OSuUdilosyz2FLQ8a-2">
          <mxGeometry x="60" y="80" width="10" height="340" as="geometry" />
        </mxCell>
        <mxCell id="003OSuUdilosyz2FLQ8a-4" value="Win" style="shape=umlFrame;whiteSpace=wrap;html=1;pointerEvents=0;width=100;height=50;fillColor=#ffe6cc;strokeColor=#000000;" vertex="1" parent="1">
          <mxGeometry x="240" y="160" width="1100" height="560" as="geometry" />
        </mxCell>
        <mxCell id="003OSuUdilosyz2FLQ8a-5" value="[POST] /transactions" style="html=1;verticalAlign=bottom;endArrow=block;curved=0;rounded=0;entryX=1;entryY=0;entryDx=0;entryDy=5;entryPerimeter=0;" edge="1" parent="1" source="003OSuUdilosyz2FLQ8a-3" target="003OSuUdilosyz2FLQ8a-18">
          <mxGeometry width="80" relative="1" as="geometry">
            <mxPoint x="1230" y="320" as="sourcePoint" />
            <mxPoint x="970" y="325" as="targetPoint" />
          </mxGeometry>
        </mxCell>
        <mxCell id="003OSuUdilosyz2FLQ8a-6" value="AleaTransactionResponse" style="html=1;verticalAlign=bottom;endArrow=open;dashed=1;endSize=8;curved=0;rounded=0;exitX=1;exitY=1;exitDx=0;exitDy=-5;exitPerimeter=0;" edge="1" parent="1" source="003OSuUdilosyz2FLQ8a-18" target="003OSuUdilosyz2FLQ8a-3">
          <mxGeometry x="-0.0007" relative="1" as="geometry">
            <mxPoint x="990" y="600" as="sourcePoint" />
            <mxPoint x="1220" y="600" as="targetPoint" />
            <mxPoint as="offset" />
          </mxGeometry>
        </mxCell>
        <mxCell id="003OSuUdilosyz2FLQ8a-7" value="GameTransactionWalletApiRestResponse" style="html=1;verticalAlign=bottom;endArrow=open;dashed=1;endSize=8;curved=0;rounded=0;exitX=1;exitY=1;exitDx=0;exitDy=-5;exitPerimeter=0;" edge="1" parent="1" source="003OSuUdilosyz2FLQ8a-13" target="003OSuUdilosyz2FLQ8a-18">
          <mxGeometry relative="1" as="geometry">
            <mxPoint x="640" y="705" as="sourcePoint" />
            <mxPoint x="940" y="565" as="targetPoint" />
          </mxGeometry>
        </mxCell>
        <mxCell id="003OSuUdilosyz2FLQ8a-8" value="wallet-service" style="shape=umlLifeline;perimeter=lifelinePerimeter;whiteSpace=wrap;html=1;container=1;dropTarget=0;collapsible=0;recursiveResize=0;outlineConnect=0;portConstraint=eastwest;newEdgeStyle={&quot;curved&quot;:0,&quot;rounded&quot;:0};fillColor=#d5e8d4;strokeColor=#000000;" vertex="1" parent="1">
          <mxGeometry x="280" y="240" width="100" height="440" as="geometry" />
        </mxCell>
        <mxCell id="003OSuUdilosyz2FLQ8a-9" value="" style="html=1;points=[[0,0,0,0,5],[0,1,0,0,-5],[1,0,0,0,5],[1,1,0,0,-5]];perimeter=orthogonalPerimeter;outlineConnect=0;targetShapes=umlLifeline;portConstraint=eastwest;newEdgeStyle={&quot;curved&quot;:0,&quot;rounded&quot;:0};fillColor=#f8cecc;strokeColor=#b85450;" vertex="1" parent="003OSuUdilosyz2FLQ8a-8">
          <mxGeometry x="45" y="240" width="10" height="50" as="geometry" />
        </mxCell>
        <mxCell id="003OSuUdilosyz2FLQ8a-10" value="[PUT]&amp;nbsp;/api/v2/wallet/{walletId}/balance-transaction/{transactionId}" style="html=1;verticalAlign=bottom;endArrow=block;curved=0;rounded=0;entryX=1;entryY=0;entryDx=0;entryDy=5;entryPerimeter=0;" edge="1" parent="1" source="003OSuUdilosyz2FLQ8a-13" target="003OSuUdilosyz2FLQ8a-9">
          <mxGeometry x="0.0018" width="80" relative="1" as="geometry">
            <mxPoint x="614.1275212153826" y="565" as="sourcePoint" />
            <mxPoint x="510" y="530" as="targetPoint" />
            <mxPoint as="offset" />
          </mxGeometry>
        </mxCell>
        <mxCell id="003OSuUdilosyz2FLQ8a-11" value="UpdateWalletBalanceRestResponse" style="html=1;verticalAlign=bottom;endArrow=open;dashed=1;endSize=8;curved=0;rounded=0;exitX=1;exitY=1;exitDx=0;exitDy=-5;exitPerimeter=0;" edge="1" parent="1" source="003OSuUdilosyz2FLQ8a-9" target="003OSuUdilosyz2FLQ8a-13">
          <mxGeometry x="-0.0031" relative="1" as="geometry">
            <mxPoint x="480" y="560" as="sourcePoint" />
            <mxPoint x="614.1275212153826" y="605" as="targetPoint" />
            <mxPoint as="offset" />
          </mxGeometry>
        </mxCell>
        <mxCell id="003OSuUdilosyz2FLQ8a-12" value="casino-transaction-service" style="shape=umlLifeline;perimeter=lifelinePerimeter;whiteSpace=wrap;html=1;container=1;dropTarget=0;collapsible=0;recursiveResize=0;outlineConnect=0;portConstraint=eastwest;newEdgeStyle={&quot;curved&quot;:0,&quot;rounded&quot;:0};fillColor=#d5e8d4;strokeColor=#000000;" vertex="1" parent="1">
          <mxGeometry x="590" y="240" width="210" height="440" as="geometry" />
        </mxCell>
        <mxCell id="003OSuUdilosyz2FLQ8a-13" value="" style="html=1;points=[[0,0,0,0,5],[0,1,0,0,-5],[1,0,0,0,5],[1,1,0,0,-5]];perimeter=orthogonalPerimeter;outlineConnect=0;targetShapes=umlLifeline;portConstraint=eastwest;newEdgeStyle={&quot;curved&quot;:0,&quot;rounded&quot;:0};fillColor=#f8cecc;strokeColor=#b85450;" vertex="1" parent="003OSuUdilosyz2FLQ8a-12">
          <mxGeometry x="100" y="170" width="10" height="230" as="geometry" />
        </mxCell>
        <mxCell id="003OSuUdilosyz2FLQ8a-14" value="&lt;span style=&quot;text-wrap-mode: nowrap;&quot;&gt;&lt;font style=&quot;font-size: 8px;&quot;&gt;Save mapping &quot;{externalId} -&amp;nbsp;{transactionId}&quot; into &quot;GameTransaction&quot; DynamoDBTable&lt;/font&gt;&lt;/span&gt;" style="rounded=1;whiteSpace=wrap;html=1;fillColor=#e1d5e7;strokeColor=#9673a6;container=0;portConstraint=none;" vertex="1" parent="1">
          <mxGeometry x="533.19" y="590" width="323.13" height="20" as="geometry">
            <mxRectangle x="-14.20999999999998" y="410" width="350" height="30" as="alternateBounds" />
          </mxGeometry>
        </mxCell>
        <mxCell id="003OSuUdilosyz2FLQ8a-15" value="&lt;span style=&quot;text-wrap-mode: nowrap;&quot;&gt;&lt;font style=&quot;font-size: 8px;&quot;&gt;Search {transactionId} by {externalId} in the &quot;GameTransaction&quot; DynamoDBTable&lt;/font&gt;&lt;/span&gt;" style="rounded=1;whiteSpace=wrap;html=1;fillColor=#e1d5e7;strokeColor=#9673a6;container=0;" vertex="1" parent="1">
          <mxGeometry x="541.87" y="440" width="306.25" height="20" as="geometry">
            <mxRectangle x="466.88" y="440" width="330" height="30" as="alternateBounds" />
          </mxGeometry>
        </mxCell>
        <mxCell id="003OSuUdilosyz2FLQ8a-16" value="&lt;font style=&quot;font-size: 8px;&quot;&gt;&lt;span style=&quot;text-wrap-mode: nowrap; text-align: left;&quot;&gt;Save GameTransaction into PostgreSQL only AFTER wallet-service&amp;nbsp;&lt;/span&gt;&lt;span style=&quot;text-wrap-mode: nowrap; text-align: left;&quot;&gt;response&amp;nbsp;&lt;/span&gt;&lt;span style=&quot;text-wrap-mode: nowrap; text-align: left;&quot;&gt;!!!&lt;/span&gt;&lt;/font&gt;" style="rounded=1;whiteSpace=wrap;html=1;fillColor=#f5f5f5;strokeColor=#666666;container=0;portConstraint=none;fontColor=#333333;" vertex="1" parent="1">
          <mxGeometry x="541.87" y="550" width="305.77" height="20" as="geometry">
            <mxRectangle x="-14.20999999999998" y="410" width="350" height="30" as="alternateBounds" />
          </mxGeometry>
        </mxCell>
        <mxCell id="003OSuUdilosyz2FLQ8a-17" value="game-provider-integration-service-alea" style="shape=umlLifeline;perimeter=lifelinePerimeter;whiteSpace=wrap;html=1;container=1;dropTarget=0;collapsible=0;recursiveResize=0;outlineConnect=0;portConstraint=eastwest;newEdgeStyle={&quot;curved&quot;:0,&quot;rounded&quot;:0};fillColor=#d5e8d4;strokeColor=#000000;" vertex="1" parent="1">
          <mxGeometry x="890" y="240" width="220" height="440" as="geometry" />
        </mxCell>
        <mxCell id="003OSuUdilosyz2FLQ8a-18" value="" style="html=1;points=[[0,0,0,0,5],[0,1,0,0,-5],[1,0,0,0,5],[1,1,0,0,-5]];perimeter=orthogonalPerimeter;outlineConnect=0;targetShapes=umlLifeline;portConstraint=eastwest;newEdgeStyle={&quot;curved&quot;:0,&quot;rounded&quot;:0};fillColor=#f8cecc;strokeColor=#b85450;container=0;" vertex="1" parent="003OSuUdilosyz2FLQ8a-17">
          <mxGeometry x="105" y="90" width="10" height="320" as="geometry" />
        </mxCell>
        <mxCell id="003OSuUdilosyz2FLQ8a-19" value="&lt;font style=&quot;font-size: 10px;&quot;&gt;Validate Signature&lt;/font&gt;" style="rounded=1;whiteSpace=wrap;html=1;fillColor=#fff2cc;strokeColor=#d6b656;" vertex="1" parent="1">
          <mxGeometry x="945" y="360" width="110" height="30" as="geometry" />
        </mxCell>
      </root>
    </mxGraphModel>
  </diagram>
</mxfile>
